<svg width="15" height="17" viewBox="0 0 15 17" fill="none" xmlns="http://www.w3.org/2000/svg">
<mask id="path-1-inside-1_312_1038" fill="white">
<path d="M14.5 6.95047C14.5 10.0549 9.92167 14.9569 8.17029 16.7186C7.79754 17.0935 7.20246 17.0935 6.82971 16.7186C5.07833 14.9569 0.5 10.0549 0.5 6.95047C0.5 3.11183 3.63401 0 7.5 0C11.366 0 14.5 3.11183 14.5 6.95047Z"/>
</mask>
<path d="M8.17029 16.7186L7.10654 15.661L8.17029 16.7186ZM6.82971 16.7186L7.89346 15.661L6.82971 16.7186ZM13 6.95047C13 7.39147 12.8265 8.03663 12.4126 8.87398C12.0101 9.68811 11.4393 10.5673 10.7882 11.443C9.48663 13.1935 7.96117 14.8014 7.10654 15.661L9.23405 17.7761C10.1308 16.8741 11.7702 15.1502 13.1956 13.2331C13.908 12.275 14.5912 11.2366 15.102 10.2034C15.6012 9.19344 16 8.06169 16 6.95047H13ZM7.89346 15.661C7.03883 14.8014 5.51337 13.1935 4.2118 11.443C3.56066 10.5673 2.98985 9.68811 2.58741 8.87398C2.17349 8.03663 2 7.39147 2 6.95047H-1C-1 8.06169 -0.601196 9.19344 -0.101951 10.2034C0.408771 11.2366 1.09201 12.275 1.80437 13.2331C3.22981 15.1502 4.8692 16.8741 5.76595 17.7761L7.89346 15.661ZM2 6.95047C2 3.95028 4.45237 1.5 7.5 1.5V-1.5C2.81564 -1.5 -1 2.27338 -1 6.95047H2ZM7.5 1.5C10.5476 1.5 13 3.95028 13 6.95047H16C16 2.27338 12.1844 -1.5 7.5 -1.5V1.5ZM7.10654 15.661C7.32027 15.446 7.67973 15.446 7.89346 15.661L5.76595 17.7761C6.7252 18.741 8.27481 18.741 9.23405 17.7761L7.10654 15.661Z" fill="#F0F2F3" fill-opacity="0.7" mask="url(#path-1-inside-1_312_1038)"/>
<circle cx="7.5" cy="7" r="3" fill="#F0F2F3" fill-opacity="0.7"/>
</svg>
